<svg width="40" height="41" viewBox="0 0 40 41" fill="none" xmlns="http://www.w3.org/2000/svg">
<path d="M6 22.0912C6 16.7635 6 13.0273 6 10.6992C6 9.04238 7.34315 7.69995 9 7.69995H28.8" stroke="#282828" stroke-width="3" stroke-miterlimit="10" stroke-linecap="round" stroke-linejoin="round"/>
<path d="M28.751 13.374H6V30.3C6 31.9568 7.34314 33.3 9 33.3H28.751C30.4079 33.3 31.751 31.9568 31.751 30.3V16.374C31.751 14.7172 30.4079 13.374 28.751 13.374Z" fill="white" stroke="#282828" stroke-width="3" stroke-miterlimit="10" stroke-linecap="round" stroke-linejoin="round"/>
<path d="M31.2082 20.5039H25.8849C24.3434 20.5039 23.0938 21.7741 23.0938 23.3411C23.0938 24.908 24.3434 26.1782 25.8849 26.1782H31.2082C32.7497 26.1782 33.9993 24.908 33.9993 23.3411C33.9993 21.7741 32.7497 20.5039 31.2082 20.5039Z" fill="white" stroke="#282828" stroke-width="3" stroke-miterlimit="10" stroke-linecap="round" stroke-linejoin="round"/>
</svg>
